<mxfile host="app.diagrams.net" agent="Mozilla/5.0 (Windows NT 10.0; Win64; x64) AppleWebKit/537.36 (KHTML, like Gecko) Chrome/136.0.0.0 Safari/537.36" version="27.0.6">
  <diagram name="Страница — 1" id="p12RGT5GbrWCn0GkbNBI">
    <mxGraphModel dx="818" dy="521" grid="0" gridSize="10" guides="1" tooltips="1" connect="1" arrows="1" fold="1" page="1" pageScale="1" pageWidth="827" pageHeight="1169" math="0" shadow="0">
      <root>
        <mxCell id="0" />
        <mxCell id="1" parent="0" />
        <mxCell id="X4-3I0yr0--uQTuuGMOa-1" value="&lt;b&gt;&lt;span style=&quot;font-size:11.0pt;line-height:150%;&lt;br/&gt;font-family:&amp;quot;Times New Roman&amp;quot;,serif;mso-fareast-font-family:Calibri;mso-fareast-theme-font:&lt;br/&gt;minor-latin;mso-bidi-theme-font:minor-bidi;mso-font-kerning:0pt;mso-ligatures:&lt;br/&gt;none;mso-ansi-language:RU;mso-fareast-language:EN-US;mso-bidi-language:AR-SA&quot;&gt;fact_network_events&lt;/span&gt;&lt;/b&gt;" style="swimlane;fontStyle=0;childLayout=stackLayout;horizontal=1;startSize=30;horizontalStack=0;resizeParent=1;resizeParentMax=0;resizeLast=0;collapsible=1;marginBottom=0;whiteSpace=wrap;html=1;fillColor=#f8cecc;strokeColor=#b85450;" vertex="1" parent="1">
          <mxGeometry x="360" y="160" width="150" height="170" as="geometry" />
        </mxCell>
        <mxCell id="X4-3I0yr0--uQTuuGMOa-16" value="" style="endArrow=none;html=1;rounded=0;entryX=0.151;entryY=-0.028;entryDx=0;entryDy=0;entryPerimeter=0;fillColor=#f8cecc;strokeColor=#b85450;exitX=0.208;exitY=1.013;exitDx=0;exitDy=0;exitPerimeter=0;" edge="1" parent="X4-3I0yr0--uQTuuGMOa-1" source="X4-3I0yr0--uQTuuGMOa-4">
          <mxGeometry width="50" height="50" relative="1" as="geometry">
            <mxPoint x="31.35" y="160.56" as="sourcePoint" />
            <mxPoint x="30.000000000000092" y="29.99999999999994" as="targetPoint" />
          </mxGeometry>
        </mxCell>
        <mxCell id="X4-3I0yr0--uQTuuGMOa-3" value="&lt;span style=&quot;line-height: 150%;&quot;&gt;&lt;font style=&quot;font-size: 12px;&quot;&gt;PK&lt;span style=&quot;white-space: pre;&quot;&gt;&#x9;&lt;/span&gt;timestamp_id&lt;/font&gt;&lt;/span&gt;" style="text;strokeColor=none;fillColor=none;align=left;verticalAlign=middle;spacingLeft=4;spacingRight=4;overflow=hidden;points=[[0,0.5],[1,0.5]];portConstraint=eastwest;rotatable=0;whiteSpace=wrap;html=1;" vertex="1" parent="X4-3I0yr0--uQTuuGMOa-1">
          <mxGeometry y="30" width="150" height="20" as="geometry" />
        </mxCell>
        <mxCell id="X4-3I0yr0--uQTuuGMOa-4" value="&lt;span style=&quot;white-space: pre;&quot;&gt;&#x9;&lt;/span&gt;event_id&lt;div&gt;&lt;span style=&quot;white-space: pre;&quot;&gt;&#x9;&lt;/span&gt;time_id&lt;br&gt;&lt;div&gt;&lt;span style=&quot;white-space: pre;&quot;&gt;&#x9;&lt;/span&gt;customer_id&lt;div&gt;&lt;span style=&quot;white-space: pre;&quot;&gt;&#x9;&lt;/span&gt;device_id&lt;/div&gt;&lt;div&gt;&lt;span style=&quot;white-space: pre;&quot;&gt;&#x9;&lt;/span&gt;location_id&lt;/div&gt;&lt;div&gt;&lt;span style=&quot;white-space: pre;&quot;&gt;&#x9;&lt;/span&gt;signal_strenght&lt;/div&gt;&lt;div&gt;&lt;span style=&quot;white-space: pre;&quot;&gt;&#x9;&lt;/span&gt;latency&lt;/div&gt;&lt;div&gt;&lt;span style=&quot;white-space: pre;&quot;&gt;&#x9;&lt;/span&gt;event_type&lt;/div&gt;&lt;/div&gt;&lt;/div&gt;" style="text;strokeColor=none;fillColor=none;align=left;verticalAlign=middle;spacingLeft=4;spacingRight=4;overflow=hidden;points=[[0,0.5],[1,0.5]];portConstraint=eastwest;rotatable=0;whiteSpace=wrap;html=1;" vertex="1" parent="X4-3I0yr0--uQTuuGMOa-1">
          <mxGeometry y="50" width="150" height="120" as="geometry" />
        </mxCell>
        <mxCell id="X4-3I0yr0--uQTuuGMOa-17" value="" style="endArrow=none;html=1;rounded=0;fillColor=#f8cecc;strokeColor=#b85450;exitX=-0.008;exitY=-0.004;exitDx=0;exitDy=0;exitPerimeter=0;entryX=0.995;entryY=0;entryDx=0;entryDy=0;entryPerimeter=0;" edge="1" parent="X4-3I0yr0--uQTuuGMOa-1" source="X4-3I0yr0--uQTuuGMOa-4" target="X4-3I0yr0--uQTuuGMOa-4">
          <mxGeometry width="50" height="50" relative="1" as="geometry">
            <mxPoint x="-99" y="161" as="sourcePoint" />
            <mxPoint x="20" y="60" as="targetPoint" />
          </mxGeometry>
        </mxCell>
        <mxCell id="X4-3I0yr0--uQTuuGMOa-18" value="&lt;b&gt;&lt;span style=&quot;font-size:11.0pt;line-height:150%;&lt;br/&gt;font-family:&amp;quot;Times New Roman&amp;quot;,serif;mso-fareast-font-family:Calibri;mso-fareast-theme-font:&lt;br/&gt;minor-latin;mso-bidi-theme-font:minor-bidi;mso-font-kerning:0pt;mso-ligatures:&lt;br/&gt;none;mso-ansi-language:RU;mso-fareast-language:EN-US;mso-bidi-language:AR-SA&quot;&gt;dim_customer&lt;/span&gt;&lt;/b&gt;" style="swimlane;fontStyle=0;childLayout=stackLayout;horizontal=1;startSize=30;horizontalStack=0;resizeParent=1;resizeParentMax=0;resizeLast=0;collapsible=1;marginBottom=0;whiteSpace=wrap;html=1;fillColor=#f8cecc;strokeColor=#b85450;" vertex="1" parent="1">
          <mxGeometry x="100" y="300" width="150" height="100" as="geometry">
            <mxRectangle x="100" y="300" width="135" height="34" as="alternateBounds" />
          </mxGeometry>
        </mxCell>
        <mxCell id="X4-3I0yr0--uQTuuGMOa-19" value="&lt;span style=&quot;line-height: 150%;&quot;&gt;&lt;font style=&quot;font-size: 12px;&quot;&gt;PK&lt;span style=&quot;white-space: pre;&quot;&gt;&#x9;&lt;/span&gt;customer_id&lt;/font&gt;&lt;/span&gt;" style="text;strokeColor=none;fillColor=none;align=left;verticalAlign=middle;spacingLeft=4;spacingRight=4;overflow=hidden;points=[[0,0.5],[1,0.5]];portConstraint=eastwest;rotatable=0;whiteSpace=wrap;html=1;" vertex="1" parent="X4-3I0yr0--uQTuuGMOa-18">
          <mxGeometry y="30" width="150" height="20" as="geometry" />
        </mxCell>
        <mxCell id="X4-3I0yr0--uQTuuGMOa-20" value="" style="endArrow=none;html=1;rounded=0;entryX=0.151;entryY=-0.028;entryDx=0;entryDy=0;entryPerimeter=0;fillColor=#f8cecc;strokeColor=#b85450;exitX=0.202;exitY=1.008;exitDx=0;exitDy=0;exitPerimeter=0;" edge="1" parent="X4-3I0yr0--uQTuuGMOa-18" source="X4-3I0yr0--uQTuuGMOa-21">
          <mxGeometry width="50" height="50" relative="1" as="geometry">
            <mxPoint x="31.35" y="160" as="sourcePoint" />
            <mxPoint x="30.000000000000092" y="29.43999999999994" as="targetPoint" />
          </mxGeometry>
        </mxCell>
        <mxCell id="X4-3I0yr0--uQTuuGMOa-21" value="&lt;span style=&quot;white-space: pre;&quot;&gt;&#x9;&lt;/span&gt;customer_name&lt;div&gt;&lt;span style=&quot;white-space: pre;&quot;&gt;&#x9;&lt;/span&gt;customer_type&lt;div&gt;&lt;span style=&quot;white-space: pre;&quot;&gt;&#x9;&lt;/span&gt;subscription_plan&lt;/div&gt;&lt;div&gt;&lt;br&gt;&lt;/div&gt;&lt;/div&gt;" style="text;strokeColor=none;fillColor=none;align=left;verticalAlign=middle;spacingLeft=4;spacingRight=4;overflow=hidden;points=[[0,0.5],[1,0.5]];portConstraint=eastwest;rotatable=0;whiteSpace=wrap;html=1;" vertex="1" parent="X4-3I0yr0--uQTuuGMOa-18">
          <mxGeometry y="50" width="150" height="50" as="geometry" />
        </mxCell>
        <mxCell id="X4-3I0yr0--uQTuuGMOa-22" value="" style="endArrow=none;html=1;rounded=0;fillColor=#f8cecc;strokeColor=#b85450;exitX=-0.008;exitY=-0.004;exitDx=0;exitDy=0;exitPerimeter=0;entryX=0.995;entryY=0;entryDx=0;entryDy=0;entryPerimeter=0;" edge="1" parent="X4-3I0yr0--uQTuuGMOa-18" source="X4-3I0yr0--uQTuuGMOa-21" target="X4-3I0yr0--uQTuuGMOa-21">
          <mxGeometry width="50" height="50" relative="1" as="geometry">
            <mxPoint x="-99" y="161" as="sourcePoint" />
            <mxPoint x="20" y="60" as="targetPoint" />
          </mxGeometry>
        </mxCell>
        <mxCell id="X4-3I0yr0--uQTuuGMOa-23" value="&lt;b&gt;&lt;span style=&quot;font-size:11.0pt;line-height:150%;&lt;br/&gt;font-family:&amp;quot;Times New Roman&amp;quot;,serif;mso-fareast-font-family:Calibri;mso-fareast-theme-font:&lt;br/&gt;minor-latin;mso-bidi-theme-font:minor-bidi;mso-font-kerning:0pt;mso-ligatures:&lt;br/&gt;none;mso-ansi-language:RU;mso-fareast-language:EN-US;mso-bidi-language:AR-SA&quot;&gt;dim_time&lt;/span&gt;&lt;/b&gt;" style="swimlane;fontStyle=0;childLayout=stackLayout;horizontal=1;startSize=30;horizontalStack=0;resizeParent=1;resizeParentMax=0;resizeLast=0;collapsible=1;marginBottom=0;whiteSpace=wrap;html=1;fillColor=#f8cecc;strokeColor=#b85450;" vertex="1" parent="1">
          <mxGeometry x="100" y="130" width="150" height="140" as="geometry" />
        </mxCell>
        <mxCell id="X4-3I0yr0--uQTuuGMOa-24" value="&lt;span style=&quot;line-height: 150%;&quot;&gt;&lt;font style=&quot;font-size: 12px;&quot;&gt;PK&lt;span style=&quot;white-space: pre;&quot;&gt;&#x9;&lt;/span&gt;time_id&lt;/font&gt;&lt;/span&gt;" style="text;strokeColor=none;fillColor=none;align=left;verticalAlign=middle;spacingLeft=4;spacingRight=4;overflow=hidden;points=[[0,0.5],[1,0.5]];portConstraint=eastwest;rotatable=0;whiteSpace=wrap;html=1;" vertex="1" parent="X4-3I0yr0--uQTuuGMOa-23">
          <mxGeometry y="30" width="150" height="20" as="geometry" />
        </mxCell>
        <mxCell id="X4-3I0yr0--uQTuuGMOa-25" value="" style="endArrow=none;html=1;rounded=0;entryX=0.151;entryY=-0.028;entryDx=0;entryDy=0;entryPerimeter=0;fillColor=#f8cecc;strokeColor=#b85450;exitX=0.206;exitY=1.016;exitDx=0;exitDy=0;exitPerimeter=0;" edge="1" parent="X4-3I0yr0--uQTuuGMOa-23" source="X4-3I0yr0--uQTuuGMOa-26">
          <mxGeometry width="50" height="50" relative="1" as="geometry">
            <mxPoint x="31.35" y="160" as="sourcePoint" />
            <mxPoint x="30.000000000000092" y="29.43999999999994" as="targetPoint" />
          </mxGeometry>
        </mxCell>
        <mxCell id="X4-3I0yr0--uQTuuGMOa-26" value="&lt;span style=&quot;white-space: pre;&quot;&gt;&#x9;&lt;/span&gt;date&lt;div&gt;&lt;span style=&quot;white-space: pre;&quot;&gt;&#x9;&lt;/span&gt;year&lt;div&gt;&lt;span style=&quot;white-space: pre;&quot;&gt;&#x9;&lt;/span&gt;quarter&lt;/div&gt;&lt;div&gt;&lt;span style=&quot;white-space: pre;&quot;&gt;&#x9;&lt;/span&gt;mount&lt;/div&gt;&lt;div&gt;&lt;span style=&quot;white-space: pre;&quot;&gt;&#x9;&lt;/span&gt;day&lt;/div&gt;&lt;div&gt;&lt;span style=&quot;white-space: pre;&quot;&gt;&#x9;&lt;/span&gt;hour&lt;/div&gt;&lt;/div&gt;" style="text;strokeColor=none;fillColor=none;align=left;verticalAlign=middle;spacingLeft=4;spacingRight=4;overflow=hidden;points=[[0,0.5],[1,0.5]];portConstraint=eastwest;rotatable=0;whiteSpace=wrap;html=1;" vertex="1" parent="X4-3I0yr0--uQTuuGMOa-23">
          <mxGeometry y="50" width="150" height="90" as="geometry" />
        </mxCell>
        <mxCell id="X4-3I0yr0--uQTuuGMOa-27" value="" style="endArrow=none;html=1;rounded=0;fillColor=#f8cecc;strokeColor=#b85450;exitX=-0.008;exitY=-0.004;exitDx=0;exitDy=0;exitPerimeter=0;entryX=0.995;entryY=0;entryDx=0;entryDy=0;entryPerimeter=0;" edge="1" parent="X4-3I0yr0--uQTuuGMOa-23" source="X4-3I0yr0--uQTuuGMOa-26" target="X4-3I0yr0--uQTuuGMOa-26">
          <mxGeometry width="50" height="50" relative="1" as="geometry">
            <mxPoint x="-99" y="161" as="sourcePoint" />
            <mxPoint x="20" y="60" as="targetPoint" />
          </mxGeometry>
        </mxCell>
        <mxCell id="X4-3I0yr0--uQTuuGMOa-28" value="&lt;b&gt;&lt;span style=&quot;font-size:11.0pt;line-height:150%;&lt;br/&gt;font-family:&amp;quot;Times New Roman&amp;quot;,serif;mso-fareast-font-family:Calibri;mso-fareast-theme-font:&lt;br/&gt;minor-latin;mso-bidi-theme-font:minor-bidi;mso-font-kerning:0pt;mso-ligatures:&lt;br/&gt;none;mso-ansi-language:RU;mso-fareast-language:EN-US;mso-bidi-language:AR-SA&quot;&gt;dim_device&lt;/span&gt;&lt;/b&gt;" style="swimlane;fontStyle=0;childLayout=stackLayout;horizontal=1;startSize=30;horizontalStack=0;resizeParent=1;resizeParentMax=0;resizeLast=0;collapsible=1;marginBottom=0;whiteSpace=wrap;html=1;fillColor=#f8cecc;strokeColor=#b85450;" vertex="1" parent="1">
          <mxGeometry x="590" y="110" width="150" height="100" as="geometry" />
        </mxCell>
        <mxCell id="X4-3I0yr0--uQTuuGMOa-29" value="&lt;span style=&quot;line-height: 150%;&quot;&gt;&lt;font style=&quot;font-size: 12px;&quot;&gt;PK&lt;span style=&quot;white-space: pre;&quot;&gt;&#x9;&lt;/span&gt;device_id&lt;/font&gt;&lt;/span&gt;" style="text;strokeColor=none;fillColor=none;align=left;verticalAlign=middle;spacingLeft=4;spacingRight=4;overflow=hidden;points=[[0,0.5],[1,0.5]];portConstraint=eastwest;rotatable=0;whiteSpace=wrap;html=1;" vertex="1" parent="X4-3I0yr0--uQTuuGMOa-28">
          <mxGeometry y="30" width="150" height="20" as="geometry" />
        </mxCell>
        <mxCell id="X4-3I0yr0--uQTuuGMOa-30" value="" style="endArrow=none;html=1;rounded=0;entryX=0.151;entryY=-0.028;entryDx=0;entryDy=0;entryPerimeter=0;fillColor=#f8cecc;strokeColor=#b85450;exitX=0.204;exitY=1.042;exitDx=0;exitDy=0;exitPerimeter=0;" edge="1" parent="X4-3I0yr0--uQTuuGMOa-28" source="X4-3I0yr0--uQTuuGMOa-31">
          <mxGeometry width="50" height="50" relative="1" as="geometry">
            <mxPoint x="31.35" y="160" as="sourcePoint" />
            <mxPoint x="30.000000000000092" y="29.43999999999994" as="targetPoint" />
          </mxGeometry>
        </mxCell>
        <mxCell id="X4-3I0yr0--uQTuuGMOa-31" value="&lt;span style=&quot;white-space: pre;&quot;&gt;&#x9;&lt;/span&gt;device_type&lt;div&gt;&lt;span style=&quot;white-space: pre;&quot;&gt;&#x9;&lt;/span&gt;manufacturer&lt;div&gt;&lt;span style=&quot;white-space: pre;&quot;&gt;&#x9;&lt;/span&gt;model&lt;/div&gt;&lt;div&gt;&lt;br&gt;&lt;/div&gt;&lt;/div&gt;" style="text;strokeColor=none;fillColor=none;align=left;verticalAlign=middle;spacingLeft=4;spacingRight=4;overflow=hidden;points=[[0,0.5],[1,0.5]];portConstraint=eastwest;rotatable=0;whiteSpace=wrap;html=1;" vertex="1" parent="X4-3I0yr0--uQTuuGMOa-28">
          <mxGeometry y="50" width="150" height="50" as="geometry" />
        </mxCell>
        <mxCell id="X4-3I0yr0--uQTuuGMOa-32" value="" style="endArrow=none;html=1;rounded=0;fillColor=#f8cecc;strokeColor=#b85450;exitX=-0.008;exitY=-0.004;exitDx=0;exitDy=0;exitPerimeter=0;entryX=0.995;entryY=0;entryDx=0;entryDy=0;entryPerimeter=0;" edge="1" parent="X4-3I0yr0--uQTuuGMOa-28" source="X4-3I0yr0--uQTuuGMOa-31" target="X4-3I0yr0--uQTuuGMOa-31">
          <mxGeometry width="50" height="50" relative="1" as="geometry">
            <mxPoint x="-99" y="161" as="sourcePoint" />
            <mxPoint x="20" y="60" as="targetPoint" />
          </mxGeometry>
        </mxCell>
        <mxCell id="X4-3I0yr0--uQTuuGMOa-39" value="" style="edgeStyle=entityRelationEdgeStyle;fontSize=12;html=1;endArrow=ERoneToMany;rounded=0;exitX=1;exitY=0.5;exitDx=0;exitDy=0;entryX=-0.005;entryY=0.201;entryDx=0;entryDy=0;entryPerimeter=0;" edge="1" parent="1" source="X4-3I0yr0--uQTuuGMOa-24" target="X4-3I0yr0--uQTuuGMOa-4">
          <mxGeometry width="100" height="100" relative="1" as="geometry">
            <mxPoint x="260" y="310" as="sourcePoint" />
            <mxPoint x="360" y="210" as="targetPoint" />
          </mxGeometry>
        </mxCell>
        <mxCell id="X4-3I0yr0--uQTuuGMOa-40" value="" style="edgeStyle=entityRelationEdgeStyle;fontSize=12;html=1;endArrow=ERoneToMany;rounded=0;entryX=-0.01;entryY=0.351;entryDx=0;entryDy=0;entryPerimeter=0;exitX=1;exitY=0.5;exitDx=0;exitDy=0;" edge="1" parent="1" source="X4-3I0yr0--uQTuuGMOa-19" target="X4-3I0yr0--uQTuuGMOa-4">
          <mxGeometry width="100" height="100" relative="1" as="geometry">
            <mxPoint x="250" y="380" as="sourcePoint" />
            <mxPoint x="350" y="280" as="targetPoint" />
          </mxGeometry>
        </mxCell>
        <mxCell id="X4-3I0yr0--uQTuuGMOa-42" value="" style="edgeStyle=entityRelationEdgeStyle;fontSize=12;html=1;endArrow=ERoneToMany;rounded=0;exitX=0;exitY=0.5;exitDx=0;exitDy=0;entryX=0.997;entryY=0.449;entryDx=0;entryDy=0;entryPerimeter=0;" edge="1" parent="1" source="X4-3I0yr0--uQTuuGMOa-31" target="X4-3I0yr0--uQTuuGMOa-4">
          <mxGeometry width="100" height="100" relative="1" as="geometry">
            <mxPoint x="640" y="400" as="sourcePoint" />
            <mxPoint x="430" y="360" as="targetPoint" />
            <Array as="points">
              <mxPoint x="640" y="270" />
              <mxPoint x="590" y="270" />
              <mxPoint x="530" y="440" />
              <mxPoint x="550" y="270" />
              <mxPoint x="590" y="350" />
              <mxPoint x="490" y="360" />
            </Array>
          </mxGeometry>
        </mxCell>
      </root>
    </mxGraphModel>
  </diagram>
</mxfile>
